<svg width="958" height="219" viewBox="0 0 958 219" fill="none" xmlns="http://www.w3.org/2000/svg">
<path d="M250.7 60.8C256.1 64 259.5 69.4 259.5 76.5C259.5 88.9 250.2 97 236 97H206.5V27H234.1C248 27 257.2 34.5 257.2 46.9C257.2 52.9 254.8 57.6 250.7 60.8ZM233.6 43H224.4V54H233.6C236.7 54 239.3 52.1 239.3 48.5C239.3 45.1 236.8 43 233.6 43ZM235.5 81C239.1 81 241.6 78.5 241.6 75.1C241.6 71.5 239.1 69.2 235.5 69.2H224.4V81H235.5ZM309.356 97L306.356 86.9H283.056L280.056 97H260.656L283.756 27H305.556L328.656 97H309.356ZM287.656 71.5H301.756L294.656 47.7L287.656 71.5ZM391.746 97H371.746L351.646 65.7V97H333.746V27H351.646V56.4L370.746 27H390.746L368.546 61L391.746 97ZM264.5 194H244.5L224.4 162.7V194H206.5V124H224.4V153.4L243.5 124H263.5L241.3 158L264.5 194ZM287.486 176.7H311.586V194H269.586V124H287.486V176.7ZM362.774 194L359.774 183.9H336.474L333.474 194H314.074L337.174 124H358.974L382.074 194H362.774ZM341.074 168.5H355.174L348.074 144.7L341.074 168.5ZM410.599 195.5C395.399 195.5 385.699 188.4 381.999 178.1L397.299 169.2C399.799 175.2 404.099 178.5 411.099 178.5C417.399 178.5 419.299 176.2 419.299 173.8C419.299 169.8 414.699 168.6 405.799 166.1C394.799 162.9 384.999 157.3 384.999 144.2C384.999 131.1 395.699 122.5 409.299 122.5C420.899 122.5 430.399 128 435.299 138.5L420.299 147.3C418.099 142.1 414.499 139.5 409.399 139.5C404.999 139.5 402.899 141.6 402.899 144.1C402.899 147.2 405.399 148.9 414.899 151.7C425.699 154.9 437.199 158.9 437.199 173.6C437.199 187.5 426.399 195.5 410.599 195.5ZM467.533 195.5C452.333 195.5 442.633 188.4 438.933 178.1L454.233 169.2C456.733 175.2 461.033 178.5 468.033 178.5C474.333 178.5 476.233 176.2 476.233 173.8C476.233 169.8 471.633 168.6 462.733 166.1C451.733 162.9 441.933 157.3 441.933 144.2C441.933 131.1 452.633 122.5 466.233 122.5C477.833 122.5 487.333 128 492.233 138.5L477.233 147.3C475.033 142.1 471.433 139.5 466.333 139.5C461.933 139.5 459.833 141.6 459.833 144.1C459.833 147.2 462.333 148.9 471.833 151.7C482.633 154.9 494.133 158.9 494.133 173.6C494.133 187.5 483.333 195.5 467.533 195.5ZM518.541 177.2H545.641V194H500.641V124H545.141V140.7H518.541V150.4H542.641V166.9H518.541V177.2ZM592.756 124H610.556V194H596.756L572.056 158.8V194H554.156V124H568.056L592.756 159.2V124ZM679.637 194H659.637L639.537 162.7V194H621.637V124H639.537V153.4L658.637 124H678.637L656.437 158L679.637 194ZM729.962 194L726.962 183.9H703.662L700.662 194H681.262L704.362 124H726.162L749.262 194H729.962ZM708.262 168.5H722.362L715.262 144.7L708.262 168.5ZM825.752 124V194H807.952V156.3L790.952 184.4H789.152L772.252 156.4V194H754.352V124H772.252L790.052 153.9L807.952 124H825.752ZM864.071 124C878.071 124 889.071 134.1 889.071 148.5C889.071 162.9 878.071 173 864.071 173H854.771V194H836.871V124H864.071ZM864.071 156C868.071 156 871.171 152.9 871.171 148.5C871.171 144.1 868.071 141.1 864.071 141.1H854.771V156H864.071ZM939.051 141.3H913.951V152.7H938.551V170H913.951V194H896.051V124H939.051V141.3Z" fill="#D60000"/>
<g clip-path="url(#clip0_17_2)">
<path d="M109.228 181.375C84.8606 152.488 67.5548 131.7 67.5548 131.319C67.5548 131.099 69.7926 131.651 72.5272 132.548C77.5002 134.182 77.5006 134.181 96.83 157.22C120.33 185.228 120.695 185.625 122.239 184.797C123.611 184.061 155.92 156.724 156.579 155.743C157.62 154.19 156.353 152.425 142.353 135.718C134.278 126.088 127.662 117.794 127.65 117.287C127.65 116.78 128.291 115.538 129.098 114.526C131.01 112.134 129.64 110.786 149.871 135.007C162.505 150.134 166.331 155.091 165.896 155.774C165.048 157.103 121.293 194.079 120.564 194.081C120.229 194.082 115.127 188.364 109.228 181.375ZM27.2047 169.177C12.5945 167.728 0.473004 166.371 0.268036 166.162C0.0443209 165.95 -0.0677708 164.478 0.0434617 162.884C0.340915 157.364 11.7683 22.9742 12.107 20.9859C12.4419 19.0314 12.5146 18.9898 15.6392 19.0011C19.701 19.0011 159.452 31.0239 159.821 31.3897C160.118 31.6842 156.042 86.1312 155.473 89.5637C155.101 91.6368 155.1 91.6364 148.431 91.2017C138.667 90.5671 138.357 90.4414 138.357 87.1592C138.357 84.4589 138.357 84.459 143.712 84.6447C148.849 84.8235 149.093 84.7713 149.59 83.3957C149.889 82.6071 150.722 73.806 151.458 63.8377C152.203 53.8699 152.946 44.0557 153.118 42.0283C153.304 40.0006 153.155 37.9603 152.856 37.4947C152.254 36.613 22.2589 25.0576 19.3056 25.6235C18.3382 25.8099 17.8416 26.4463 17.6066 27.8127C16.893 31.9572 6.33302 159.142 6.63422 159.931C7.07665 161.09 7.5722 161.16 31.5522 163.429C47.6984 164.957 53.0291 165.272 53.5678 164.733C53.9777 164.32 54.8657 157.705 55.6768 149.012C57.0079 134.721 57.1493 133.923 58.6378 132.314C59.5001 131.385 60.2072 130.457 60.2147 130.253C60.2147 129.195 61.3421 128.351 62.2432 128.698C63.6005 129.221 63.5777 130.43 61.733 150.915C59.6608 173.995 60.1489 171.981 56.6532 171.888C55.0685 171.843 41.8136 170.626 27.2072 169.177H27.2047ZM120.498 160.246C117.404 159.337 114.602 156.084 99.896 136.322C66.9886 92.1091 55.9063 76.8632 55.9063 75.8006C55.9063 74.8734 64.909 67.9987 66.2513 67.901C67.8798 67.782 127.286 140.061 130.336 145.878C132.735 150.443 132.866 154.584 130.709 156.922C127.889 159.949 123.92 161.244 120.52 160.246H120.498ZM31.1714 159.076C26.0834 157.462 23.9679 151.835 26.4187 146.429C27.6835 143.642 43.6189 128.345 45.2561 128.345C46.7884 128.345 53.4555 133.335 53.4555 134.48C53.4555 135.052 51.0458 140.334 48.0926 146.217C42.1785 158.012 41.5167 158.729 35.9851 159.31C34.3041 159.489 32.135 159.38 31.1714 159.079V159.076ZM80.4679 131.949C78.6369 131.644 74.7772 130.409 71.8877 129.204C68.9969 127.998 64.9011 126.496 62.7802 125.867C59.307 124.837 55.4464 122.454 53.5605 120.177C53.018 119.523 53.3374 118.521 55.0446 115.699C57.6254 111.406 60.9439 106.889 61.5426 106.862C61.7663 106.862 64.1293 108.326 66.7664 110.138C72.5092 114.079 75.5545 115.689 79.0765 116.639C81.4124 117.269 82.2168 118.035 86.2824 123.514C92.6101 132.032 92.5118 131.798 89.756 132.255C86.9101 132.727 84.7072 132.654 80.4679 131.949ZM51.7541 128.091C47.856 125.214 47.2637 124.146 48.8298 122.841C50.0758 121.804 51.492 122.406 54.9177 125.426C57.8822 128.042 57.8838 128.042 56.7265 129.474C55.5704 130.906 55.571 130.905 51.7541 128.091ZM114.598 120.077C112.452 117.484 112.479 116.701 114.823 114.484C118.104 111.352 122.67 103.871 124.113 99.2713C125.981 93.3161 126.109 81.8647 124.335 78.6186C122.617 75.4653 121.765 77.2412 121.296 84.9413C120.564 96.8959 118.663 102.101 112.66 108.547C109.029 112.444 109.03 112.444 107.483 110.894C105.939 109.344 105.941 109.343 109.767 105.351C115.474 99.3894 117.935 93.7087 118.289 85.6478C118.809 73.9966 115.242 65.4192 104.895 53.4132C100.163 47.9261 100.299 47.6356 106.682 49.6282C112.547 51.4569 118.318 55.0591 123.012 59.8173C136.54 73.5364 139.032 92.7639 129.391 109.115C127.062 113.065 118.459 122.226 117.147 122.158C116.674 122.12 115.529 121.197 114.603 120.077H114.598ZM106.348 92.5596C99.5449 84.5623 96.7674 81.0437 97.0424 80.7894C97.3399 80.5396 110.388 81.5023 113.375 81.9956C115.272 82.3087 115.365 82.4521 115.365 85.0496C115.365 87.4437 115.179 87.8213 113.832 88.1599C112.04 88.6114 111.945 89.16 113.285 91.4335C114.211 93.006 114.197 93.2666 112.951 95.6754C112.232 97.0868 111.533 98.2419 111.403 98.2419C111.254 98.2419 108.986 95.6852 106.33 92.5596H106.348ZM39.051 81.4279C36.0302 77.2185 27.0998 63.6866 27.0998 63.3142C27.0998 62.5286 29.9409 60.1346 41.1967 51.4302C56.1681 39.854 54.1826 40.7982 60.2904 42.3476C66.7143 43.978 82.4016 48.4918 83.0602 48.8985C83.3202 49.0662 83.2086 49.6223 82.7624 50.1353C81.3939 51.7898 42.1189 81.333 40.4229 81.9839C39.9992 82.148 39.3751 81.8989 39.0364 81.4279H39.051Z" fill="#D60000"/>
</g>
<defs>
<clipPath id="clip0_17_2">
<rect width="166" height="175" fill="white" transform="translate(0 19)"/>
</clipPath>
</defs>
</svg>
